<svg xmlns="http://www.w3.org/2000/svg" xmlns:xlink="http://www.w3.org/1999/xlink" width="500" zoomAndPan="magnify" viewBox="0 0 375 374.999991" height="500" preserveAspectRatio="xMidYMid meet" version="1.0"><defs><g/></defs><g fill="#e88400" fill-opacity="0.7216"><g transform="translate(52.307139, 213.188525)"><g><path d="M 8.359375 -39.296875 L 34.40625 -39.296875 L 33.40625 -34.59375 L 20.734375 -34.59375 L 18.3125 -23.265625 L 28.890625 -23.265625 L 27.90625 -18.5 L 17.328125 -18.5 L 13.359375 0 L 0 0 Z M 8.359375 -39.296875 "/></g></g></g><g fill="#e88400" fill-opacity="0.7216"><g transform="translate(82.687756, 213.188525)"><g><path d="M 34.28125 0 L 19.796875 0 L 18.9375 -9.84375 L 7.484375 -9.84375 L 3.09375 0 L -2.90625 0 L 15.34375 -39.296875 L 30.015625 -39.296875 Z M 9.53125 -14.359375 L 18.5 -14.359375 L 17.078125 -31.1875 Z M 9.53125 -14.359375 "/></g></g></g><g fill="#e88400" fill-opacity="0.7216"><g transform="translate(119.936498, 213.188525)"><g><path d="M 24.375 -27.90625 C 24.5 -28.519531 24.5625 -29.363281 24.5625 -30.4375 C 24.5625 -31.0625 24.519531 -31.671875 24.4375 -32.265625 C 24.351562 -32.867188 24.207031 -33.40625 24 -33.875 C 23.800781 -34.351562 23.492188 -34.722656 23.078125 -34.984375 C 22.660156 -35.253906 22.125 -35.390625 21.46875 -35.390625 C 20.726562 -35.390625 20.046875 -35.222656 19.421875 -34.890625 C 18.804688 -34.566406 18.257812 -34.144531 17.78125 -33.625 C 17.3125 -33.113281 16.941406 -32.515625 16.671875 -31.828125 C 16.398438 -31.148438 16.265625 -30.441406 16.265625 -29.703125 C 16.265625 -28.628906 16.539062 -27.800781 17.09375 -27.21875 C 17.65625 -26.644531 18.390625 -26.171875 19.296875 -25.796875 C 20.210938 -25.429688 21.242188 -25.125 22.390625 -24.875 C 23.546875 -24.625 24.742188 -24.332031 25.984375 -24 C 27.015625 -23.71875 28.046875 -23.347656 29.078125 -22.890625 C 30.109375 -22.441406 31.023438 -21.832031 31.828125 -21.0625 C 32.640625 -20.300781 33.289062 -19.3125 33.78125 -18.09375 C 34.28125 -16.875 34.53125 -15.359375 34.53125 -13.546875 C 34.53125 -10.953125 34.015625 -8.765625 32.984375 -6.984375 C 31.953125 -5.210938 30.523438 -3.769531 28.703125 -2.65625 C 26.890625 -1.539062 24.734375 -0.734375 22.234375 -0.234375 C 19.742188 0.253906 17.035156 0.5 14.109375 0.5 C 11.140625 0.5 8.710938 0.300781 6.828125 -0.09375 C 4.953125 -0.488281 3.476562 -0.910156 2.40625 -1.359375 C 1.132812 -1.898438 0.1875 -2.519531 -0.4375 -3.21875 L 1.671875 -11.6875 L 12.5625 -11.6875 C 12.519531 -11.320312 12.476562 -10.816406 12.4375 -10.171875 C 12.394531 -9.535156 12.375 -9.03125 12.375 -8.65625 C 12.375 -8.164062 12.4375 -7.648438 12.5625 -7.109375 C 12.6875 -6.578125 12.878906 -6.082031 13.140625 -5.625 C 13.410156 -5.175781 13.789062 -4.804688 14.28125 -4.515625 C 14.78125 -4.222656 15.40625 -4.078125 16.15625 -4.078125 C 16.976562 -4.078125 17.707031 -4.265625 18.34375 -4.640625 C 18.988281 -5.015625 19.523438 -5.476562 19.953125 -6.03125 C 20.390625 -6.59375 20.71875 -7.210938 20.9375 -7.890625 C 21.164062 -8.566406 21.28125 -9.238281 21.28125 -9.90625 C 21.28125 -10.8125 21.0625 -11.570312 20.625 -12.1875 C 20.195312 -12.8125 19.613281 -13.335938 18.875 -13.765625 C 18.132812 -14.203125 17.273438 -14.570312 16.296875 -14.875 C 15.328125 -15.1875 14.328125 -15.507812 13.296875 -15.84375 C 12.304688 -16.125 11.265625 -16.472656 10.171875 -16.890625 C 9.078125 -17.304688 8.078125 -17.882812 7.171875 -18.625 C 6.265625 -19.363281 5.507812 -20.300781 4.90625 -21.4375 C 4.3125 -22.570312 4.015625 -24.023438 4.015625 -25.796875 C 4.015625 -28.441406 4.6875 -30.660156 6.03125 -32.453125 C 7.375 -34.242188 9.066406 -35.695312 11.109375 -36.8125 C 13.148438 -37.925781 15.382812 -38.71875 17.8125 -39.1875 C 20.25 -39.664062 22.5625 -39.90625 24.75 -39.90625 C 27.632812 -39.90625 30.117188 -39.566406 32.203125 -38.890625 C 34.285156 -38.210938 35.863281 -37.414062 36.9375 -36.5 L 34.65625 -27.90625 Z M 24.375 -27.90625 "/></g></g></g><g fill="#e88400" fill-opacity="0.7216"><g transform="translate(156.257113, 213.188525)"><g><path d="M 37.6875 -34.59375 L 27.71875 -34.59375 L 20.359375 0 L 6.984375 0 L 14.359375 -34.59375 L 4.515625 -34.59375 L 5.625 -39.296875 L 38.734375 -39.296875 Z M 37.6875 -34.59375 "/></g></g></g><g fill="#e88400" fill-opacity="0.7216"><g transform="translate(190.597729, 213.188525)"><g><path d="M 4.828125 -39.296875 L 19.921875 -39.296875 L 20.96875 -12.5 L 31.3125 -39.296875 L 43.5625 -39.296875 L 45.171875 -12.5 L 55.5625 -39.296875 L 62.0625 -39.296875 L 46.78125 0 L 32.859375 0 L 31.5625 -22.21875 L 22.28125 0 L 7.421875 0 Z M 4.828125 -39.296875 "/></g></g></g><g fill="#e88400" fill-opacity="0.7216"><g transform="translate(249.007718, 213.188525)"><g><path d="M 34.28125 0 L 19.796875 0 L 18.9375 -9.84375 L 7.484375 -9.84375 L 3.09375 0 L -2.90625 0 L 15.34375 -39.296875 L 30.015625 -39.296875 Z M 9.53125 -14.359375 L 18.5 -14.359375 L 17.078125 -31.1875 Z M 9.53125 -14.359375 "/></g></g></g><g fill="#e88400" fill-opacity="0.7216"><g transform="translate(286.256449, 213.188525)"><g><path d="M 24.0625 -14.84375 L 20.90625 0 L 7.484375 0 L 10.890625 -15.90625 L 4.828125 -39.296875 L 19.671875 -39.296875 L 23.890625 -23.765625 L 33.171875 -39.296875 L 39.84375 -39.296875 Z M 24.0625 -14.84375 "/></g></g></g><g fill="#ff4500" fill-opacity="1"><g transform="translate(49.836896, 209.077354)"><g><path d="M 8.359375 -39.296875 L 34.40625 -39.296875 L 33.40625 -34.59375 L 20.734375 -34.59375 L 18.3125 -23.265625 L 28.890625 -23.265625 L 27.90625 -18.5 L 17.328125 -18.5 L 13.359375 0 L 0 0 Z M 8.359375 -39.296875 "/></g></g></g><g fill="#ff4500" fill-opacity="1"><g transform="translate(80.217513, 209.077354)"><g><path d="M 34.28125 0 L 19.796875 0 L 18.9375 -9.84375 L 7.484375 -9.84375 L 3.09375 0 L -2.90625 0 L 15.34375 -39.296875 L 30.015625 -39.296875 Z M 9.53125 -14.359375 L 18.5 -14.359375 L 17.078125 -31.1875 Z M 9.53125 -14.359375 "/></g></g></g><g fill="#ff4500" fill-opacity="1"><g transform="translate(117.466255, 209.077354)"><g><path d="M 24.375 -27.90625 C 24.5 -28.519531 24.5625 -29.363281 24.5625 -30.4375 C 24.5625 -31.0625 24.519531 -31.671875 24.4375 -32.265625 C 24.351562 -32.867188 24.207031 -33.40625 24 -33.875 C 23.800781 -34.351562 23.492188 -34.722656 23.078125 -34.984375 C 22.660156 -35.253906 22.125 -35.390625 21.46875 -35.390625 C 20.726562 -35.390625 20.046875 -35.222656 19.421875 -34.890625 C 18.804688 -34.566406 18.257812 -34.144531 17.78125 -33.625 C 17.3125 -33.113281 16.941406 -32.515625 16.671875 -31.828125 C 16.398438 -31.148438 16.265625 -30.441406 16.265625 -29.703125 C 16.265625 -28.628906 16.539062 -27.800781 17.09375 -27.21875 C 17.65625 -26.644531 18.390625 -26.171875 19.296875 -25.796875 C 20.210938 -25.429688 21.242188 -25.125 22.390625 -24.875 C 23.546875 -24.625 24.742188 -24.332031 25.984375 -24 C 27.015625 -23.71875 28.046875 -23.347656 29.078125 -22.890625 C 30.109375 -22.441406 31.023438 -21.832031 31.828125 -21.0625 C 32.640625 -20.300781 33.289062 -19.3125 33.78125 -18.09375 C 34.28125 -16.875 34.53125 -15.359375 34.53125 -13.546875 C 34.53125 -10.953125 34.015625 -8.765625 32.984375 -6.984375 C 31.953125 -5.210938 30.523438 -3.769531 28.703125 -2.65625 C 26.890625 -1.539062 24.734375 -0.734375 22.234375 -0.234375 C 19.742188 0.253906 17.035156 0.5 14.109375 0.5 C 11.140625 0.5 8.710938 0.300781 6.828125 -0.09375 C 4.953125 -0.488281 3.476562 -0.910156 2.40625 -1.359375 C 1.132812 -1.898438 0.1875 -2.519531 -0.4375 -3.21875 L 1.671875 -11.6875 L 12.5625 -11.6875 C 12.519531 -11.320312 12.476562 -10.816406 12.4375 -10.171875 C 12.394531 -9.535156 12.375 -9.03125 12.375 -8.65625 C 12.375 -8.164062 12.4375 -7.648438 12.5625 -7.109375 C 12.6875 -6.578125 12.878906 -6.082031 13.140625 -5.625 C 13.410156 -5.175781 13.789062 -4.804688 14.28125 -4.515625 C 14.78125 -4.222656 15.40625 -4.078125 16.15625 -4.078125 C 16.976562 -4.078125 17.707031 -4.265625 18.34375 -4.640625 C 18.988281 -5.015625 19.523438 -5.476562 19.953125 -6.03125 C 20.390625 -6.59375 20.71875 -7.210938 20.9375 -7.890625 C 21.164062 -8.566406 21.28125 -9.238281 21.28125 -9.90625 C 21.28125 -10.8125 21.0625 -11.570312 20.625 -12.1875 C 20.195312 -12.8125 19.613281 -13.335938 18.875 -13.765625 C 18.132812 -14.203125 17.273438 -14.570312 16.296875 -14.875 C 15.328125 -15.1875 14.328125 -15.507812 13.296875 -15.84375 C 12.304688 -16.125 11.265625 -16.472656 10.171875 -16.890625 C 9.078125 -17.304688 8.078125 -17.882812 7.171875 -18.625 C 6.265625 -19.363281 5.507812 -20.300781 4.90625 -21.4375 C 4.3125 -22.570312 4.015625 -24.023438 4.015625 -25.796875 C 4.015625 -28.441406 4.6875 -30.660156 6.03125 -32.453125 C 7.375 -34.242188 9.066406 -35.695312 11.109375 -36.8125 C 13.148438 -37.925781 15.382812 -38.71875 17.8125 -39.1875 C 20.25 -39.664062 22.5625 -39.90625 24.75 -39.90625 C 27.632812 -39.90625 30.117188 -39.566406 32.203125 -38.890625 C 34.285156 -38.210938 35.863281 -37.414062 36.9375 -36.5 L 34.65625 -27.90625 Z M 24.375 -27.90625 "/></g></g></g><g fill="#ff4500" fill-opacity="1"><g transform="translate(153.78687, 209.077354)"><g><path d="M 37.6875 -34.59375 L 27.71875 -34.59375 L 20.359375 0 L 6.984375 0 L 14.359375 -34.59375 L 4.515625 -34.59375 L 5.625 -39.296875 L 38.734375 -39.296875 Z M 37.6875 -34.59375 "/></g></g></g><g fill="#ff4500" fill-opacity="1"><g transform="translate(188.127486, 209.077354)"><g><path d="M 4.828125 -39.296875 L 19.921875 -39.296875 L 20.96875 -12.5 L 31.3125 -39.296875 L 43.5625 -39.296875 L 45.171875 -12.5 L 55.5625 -39.296875 L 62.0625 -39.296875 L 46.78125 0 L 32.859375 0 L 31.5625 -22.21875 L 22.28125 0 L 7.421875 0 Z M 4.828125 -39.296875 "/></g></g></g><g fill="#ff4500" fill-opacity="1"><g transform="translate(246.537475, 209.077354)"><g><path d="M 34.28125 0 L 19.796875 0 L 18.9375 -9.84375 L 7.484375 -9.84375 L 3.09375 0 L -2.90625 0 L 15.34375 -39.296875 L 30.015625 -39.296875 Z M 9.53125 -14.359375 L 18.5 -14.359375 L 17.078125 -31.1875 Z M 9.53125 -14.359375 "/></g></g></g><g fill="#ff4500" fill-opacity="1"><g transform="translate(283.786206, 209.077354)"><g><path d="M 24.0625 -14.84375 L 20.90625 0 L 7.484375 0 L 10.890625 -15.90625 L 4.828125 -39.296875 L 19.671875 -39.296875 L 23.890625 -23.765625 L 33.171875 -39.296875 L 39.84375 -39.296875 Z M 24.0625 -14.84375 "/></g></g></g></svg>